<?xml version="1.0" encoding="utf-8"?>
<!-- Generator: Adobe Illustrator 19.0.0, SVG Export Plug-In . SVG Version: 6.00 Build 0)  -->
<svg version="1.1" id="Layer_1" xmlns="http://www.w3.org/2000/svg" xmlns:xlink="http://www.w3.org/1999/xlink" x="0px" y="0px"
	 viewBox="32 158 1024.4 246" style="enable-background:new 32 158 1024.4 246;" xml:space="preserve">
<style type="text/css">
	.st0{enable-background:new    ;}
	.st1{fill:#FFFFFF;}
	.st2{fill:url(#XMLID_3_);}
</style>
<g class="st0">
	<path class="st1" d="M736.1,216.8v-29.1h17.7v3.5h-13.7v8.6h12.2v3.4h-12.2v10.1h14.7v3.5H736.1z"/>
	<path class="st1" d="M766.3,217.3c-2.4-0.1-4.1-0.6-5.1-1.6c-1-1-1.5-2.5-1.5-4.6V185l3.9-0.7v26.2c0,0.6,0.1,1.2,0.2,1.6
		c0.1,0.4,0.3,0.8,0.5,1c0.3,0.3,0.6,0.4,1,0.6c0.4,0.1,0.9,0.2,1.6,0.3L766.3,217.3z"/>
	<path class="st1" d="M770,206c0-1.9,0.3-3.6,0.8-5.1c0.6-1.4,1.3-2.6,2.2-3.6s2-1.7,3.2-2.1c1.2-0.5,2.4-0.7,3.7-0.7
		c2.9,0,5.2,0.9,6.8,2.7s2.3,4.6,2.3,8.4c0,0.2,0,0.4,0,0.6c0,0.3,0,0.5,0,0.7h-14.9c0.2,2.3,0.8,4,2,5.2c1.1,1.2,2.9,1.8,5.4,1.8
		c1.4,0,2.5-0.1,3.5-0.4c0.9-0.2,1.6-0.5,2.1-0.7l0.5,3.3c-0.5,0.3-1.3,0.5-2.5,0.8c-1.2,0.3-2.5,0.4-4,0.4c-1.9,0-3.5-0.3-4.9-0.9
		s-2.5-1.4-3.4-2.4c-0.9-1-1.6-2.2-2-3.6C770.2,209.2,770,207.6,770,206z M785,203.9c0-1.8-0.4-3.2-1.3-4.3
		c-0.9-1.1-2.2-1.7-3.8-1.7c-0.9,0-1.7,0.2-2.4,0.5s-1.3,0.8-1.7,1.4c-0.5,0.6-0.8,1.2-1.1,1.9c-0.3,0.7-0.4,1.5-0.5,2.2H785z"/>
	<path class="st1" d="M804.1,217.4c-1.8,0-3.3-0.3-4.6-0.8c-1.3-0.6-2.4-1.3-3.4-2.3c-0.9-1-1.6-2.2-2-3.6c-0.4-1.4-0.7-2.9-0.7-4.6
		c0-1.7,0.2-3.2,0.7-4.6c0.5-1.4,1.2-2.6,2.1-3.6s2-1.8,3.3-2.4s2.7-0.9,4.3-0.9c1,0,2,0.1,2.9,0.3s1.9,0.4,2.8,0.8l-0.9,3.3
		c-0.6-0.3-1.3-0.5-2-0.7c-0.8-0.2-1.6-0.3-2.5-0.3c-2.2,0-3.9,0.7-5,2.1c-1.2,1.4-1.7,3.4-1.7,6c0,1.2,0.1,2.3,0.4,3.2
		c0.3,1,0.7,1.8,1.3,2.5c0.6,0.7,1.3,1.2,2.2,1.6c0.9,0.4,2,0.6,3.3,0.6c1,0,2-0.1,2.8-0.3c0.8-0.2,1.5-0.4,2-0.6l0.5,3.3
		c-0.2,0.1-0.5,0.3-1,0.4c-0.4,0.1-0.9,0.2-1.4,0.3c-0.5,0.1-1.1,0.2-1.7,0.3C805.3,217.3,804.7,217.4,804.1,217.4z"/>
	<path class="st1" d="M817.8,195h8.3v3.3h-8.3v10.1c0,1.1,0.1,2,0.3,2.7c0.2,0.7,0.4,1.3,0.8,1.7c0.3,0.4,0.8,0.7,1.3,0.9
		s1.1,0.3,1.8,0.3c1.2,0,2.1-0.1,2.8-0.4s1.2-0.5,1.5-0.6l0.8,3.2c-0.4,0.2-1.1,0.4-2.1,0.7c-1,0.3-2.1,0.4-3.4,0.4
		c-1.5,0-2.7-0.2-3.7-0.6c-1-0.4-1.7-0.9-2.3-1.7s-1-1.7-1.2-2.8c-0.2-1.1-0.4-2.4-0.4-3.8V189l3.9-0.7V195z"/>
	<path class="st1" d="M839.1,194.6c0.3,0,0.7,0,1.2,0.1s0.9,0.1,1.3,0.2c0.4,0.1,0.8,0.1,1.2,0.2c0.3,0.1,0.6,0.1,0.8,0.2l-0.7,3.4
		c-0.3-0.1-0.8-0.2-1.5-0.4c-0.7-0.2-1.6-0.2-2.7-0.2c-0.7,0-1.4,0.1-2.2,0.2c-0.7,0.2-1.2,0.3-1.4,0.3v18.3H831V196
		c0.9-0.3,2.1-0.6,3.4-0.9C835.8,194.7,837.4,194.6,839.1,194.6z"/>
	<path class="st1" d="M866.4,205.9c0,1.7-0.3,3.3-0.8,4.7c-0.5,1.4-1.2,2.6-2.1,3.6c-0.9,1-2,1.8-3.2,2.3s-2.6,0.8-4.1,0.8
		c-1.5,0-2.9-0.3-4.1-0.8s-2.3-1.3-3.2-2.3c-0.9-1-1.6-2.2-2.1-3.6c-0.5-1.4-0.8-3-0.8-4.7c0-1.7,0.3-3.3,0.8-4.7
		c0.5-1.4,1.2-2.6,2.1-3.6c0.9-1,2-1.8,3.2-2.3s2.6-0.8,4.1-0.8c1.5,0,2.9,0.3,4.1,0.8s2.3,1.3,3.2,2.3c0.9,1,1.6,2.2,2.1,3.6
		C866.2,202.7,866.4,204.2,866.4,205.9z M862.4,205.9c0-2.5-0.6-4.4-1.7-5.8c-1.1-1.4-2.6-2.2-4.5-2.2c-1.9,0-3.4,0.7-4.5,2.2
		c-1.1,1.4-1.7,3.4-1.7,5.8c0,2.5,0.6,4.4,1.7,5.8s2.6,2.2,4.5,2.2c1.9,0,3.4-0.7,4.5-2.2C861.8,210.4,862.4,208.4,862.4,205.9z"/>
	<path class="st1" d="M871.9,195.7c0.9-0.2,2.1-0.5,3.6-0.7c1.5-0.3,3.2-0.4,5.1-0.4c1.7,0,3.2,0.2,4.3,0.7c1.1,0.5,2.1,1.2,2.7,2.1
		c0.7,0.9,1.2,1.9,1.4,3.2c0.3,1.2,0.4,2.6,0.4,4.1v12.2h-3.9v-11.4c0-1.3-0.1-2.5-0.3-3.4c-0.2-1-0.5-1.7-0.9-2.3
		c-0.4-0.6-1-1-1.7-1.3c-0.7-0.3-1.6-0.4-2.6-0.4c-0.4,0-0.9,0-1.3,0c-0.4,0-0.9,0.1-1.3,0.1c-0.4,0-0.8,0.1-1.1,0.1
		c-0.3,0.1-0.6,0.1-0.7,0.1v18.4h-3.9V195.7z"/>
	<path class="st1" d="M897.9,191.1c-0.7,0-1.3-0.2-1.8-0.7c-0.5-0.5-0.7-1.1-0.7-1.9c0-0.8,0.2-1.4,0.7-1.9c0.5-0.5,1.1-0.7,1.8-0.7
		c0.7,0,1.3,0.2,1.8,0.7c0.5,0.5,0.7,1.1,0.7,1.9c0,0.8-0.2,1.4-0.7,1.9C899.2,190.9,898.6,191.1,897.9,191.1z M899.9,216.8H896V195
		h3.9V216.8z"/>
	<path class="st1" d="M916.1,217.4c-1.8,0-3.3-0.3-4.6-0.8c-1.3-0.6-2.4-1.3-3.4-2.3c-0.9-1-1.6-2.2-2-3.6c-0.4-1.4-0.7-2.9-0.7-4.6
		c0-1.7,0.2-3.2,0.7-4.6c0.5-1.4,1.2-2.6,2.1-3.6s2-1.8,3.3-2.4s2.7-0.9,4.3-0.9c1,0,2,0.1,2.9,0.3s1.9,0.4,2.8,0.8l-0.9,3.3
		c-0.6-0.3-1.3-0.5-2-0.7c-0.8-0.2-1.6-0.3-2.5-0.3c-2.2,0-3.9,0.7-5,2.1c-1.2,1.4-1.7,3.4-1.7,6c0,1.2,0.1,2.3,0.4,3.2
		c0.3,1,0.7,1.8,1.3,2.5c0.6,0.7,1.3,1.2,2.2,1.6c0.9,0.4,2,0.6,3.3,0.6c1,0,2-0.1,2.8-0.3c0.8-0.2,1.5-0.4,2-0.6l0.5,3.3
		c-0.2,0.1-0.5,0.3-1,0.4c-0.4,0.1-0.9,0.2-1.4,0.3c-0.5,0.1-1.1,0.2-1.7,0.3C917.2,217.3,916.6,217.4,916.1,217.4z"/>
</g>
<g class="st0">
	<path class="st1" d="M754.4,238.1h4.1v29.1h-4.1v-13.4h-14.2v13.4h-4.1v-29.1h4.1v12.1h14.2V238.1z"/>
	<path class="st1" d="M764.2,256.3c0-1.9,0.3-3.6,0.8-5.1c0.6-1.4,1.3-2.6,2.2-3.6s2-1.7,3.2-2.1c1.2-0.5,2.4-0.7,3.7-0.7
		c2.9,0,5.2,0.9,6.8,2.7s2.3,4.6,2.3,8.4c0,0.2,0,0.4,0,0.6c0,0.3,0,0.5,0,0.7h-14.9c0.2,2.3,0.8,4,2,5.2c1.1,1.2,2.9,1.8,5.4,1.8
		c1.4,0,2.5-0.1,3.5-0.4c0.9-0.2,1.6-0.5,2.1-0.7l0.5,3.3c-0.5,0.3-1.3,0.5-2.5,0.8c-1.2,0.3-2.5,0.4-4,0.4c-1.9,0-3.5-0.3-4.9-0.9
		s-2.5-1.4-3.4-2.4c-0.9-1-1.6-2.2-2-3.6C764.4,259.5,764.2,257.9,764.2,256.3z M779.1,254.2c0-1.8-0.4-3.2-1.3-4.3
		c-0.9-1.1-2.2-1.7-3.8-1.7c-0.9,0-1.7,0.2-2.4,0.5s-1.3,0.8-1.7,1.4c-0.5,0.6-0.8,1.2-1.1,1.9c-0.3,0.7-0.4,1.5-0.5,2.2H779.1z"/>
	<path class="st1" d="M795.9,244.8c1.6,0,2.9,0.2,4,0.6s1.9,1,2.6,1.7c0.7,0.7,1.1,1.6,1.4,2.6c0.3,1,0.4,2.1,0.4,3.4v13.6
		c-0.3,0.1-0.8,0.1-1.4,0.2c-0.6,0.1-1.3,0.2-2,0.3c-0.8,0.1-1.6,0.2-2.5,0.2c-0.9,0.1-1.8,0.1-2.6,0.1c-1.2,0-2.4-0.1-3.4-0.4
		c-1-0.3-1.9-0.7-2.7-1.2s-1.3-1.3-1.8-2.2c-0.4-0.9-0.6-2-0.6-3.2c0-1.2,0.2-2.2,0.7-3.1c0.5-0.9,1.2-1.6,2-2.1
		c0.8-0.5,1.8-0.9,2.9-1.2c1.1-0.3,2.3-0.4,3.5-0.4c0.4,0,0.8,0,1.2,0.1c0.4,0,0.8,0.1,1.2,0.2c0.4,0.1,0.7,0.1,1,0.2
		c0.3,0.1,0.5,0.1,0.6,0.1v-1.1c0-0.6-0.1-1.3-0.2-1.9s-0.4-1.2-0.8-1.7c-0.4-0.5-0.9-0.9-1.5-1.2c-0.6-0.3-1.4-0.4-2.5-0.4
		c-1.3,0-2.4,0.1-3.4,0.3c-1,0.2-1.7,0.4-2.2,0.6l-0.5-3.2c0.5-0.2,1.3-0.4,2.5-0.7C793.2,244.9,794.5,244.8,795.9,244.8z
		 M796.2,264.3c0.9,0,1.7,0,2.5-0.1s1.3-0.1,1.8-0.2v-6.5c-0.3-0.1-0.7-0.3-1.4-0.4c-0.6-0.1-1.4-0.1-2.3-0.1c-0.6,0-1.2,0-1.9,0.1
		c-0.7,0.1-1.3,0.3-1.8,0.5s-1,0.6-1.4,1.1c-0.4,0.5-0.5,1.1-0.5,1.8c0,1.4,0.4,2.4,1.3,2.9C793.5,264.1,794.7,264.3,796.2,264.3z"
		/>
	<path class="st1" d="M817.3,267.6c-2.4-0.1-4.1-0.6-5.1-1.6c-1-1-1.5-2.5-1.5-4.6v-26.2l3.9-0.7v26.2c0,0.6,0.1,1.2,0.2,1.6
		c0.1,0.4,0.3,0.8,0.5,1c0.3,0.3,0.6,0.4,1,0.6c0.4,0.1,0.9,0.2,1.6,0.3L817.3,267.6z"/>
	<path class="st1" d="M825.8,245.3h8.3v3.3h-8.3v10.1c0,1.1,0.1,2,0.3,2.7c0.2,0.7,0.4,1.3,0.8,1.7c0.3,0.4,0.8,0.7,1.3,0.9
		s1.1,0.3,1.8,0.3c1.2,0,2.1-0.1,2.8-0.4s1.2-0.5,1.5-0.6l0.8,3.2c-0.4,0.2-1.1,0.4-2.1,0.7c-1,0.3-2.1,0.4-3.4,0.4
		c-1.5,0-2.7-0.2-3.7-0.6c-1-0.4-1.7-0.9-2.3-1.7s-1-1.7-1.2-2.8c-0.2-1.1-0.4-2.4-0.4-3.8v-19.5l3.9-0.7V245.3z"/>
	<path class="st1" d="M839,267.1v-31.9l3.9-0.7v11.2c0.7-0.3,1.5-0.5,2.3-0.7c0.8-0.2,1.6-0.2,2.5-0.2c1.7,0,3.2,0.2,4.3,0.7
		c1.1,0.5,2.1,1.2,2.7,2.1c0.7,0.9,1.2,1.9,1.4,3.2c0.3,1.2,0.4,2.6,0.4,4.1v12.2h-3.9v-11.4c0-1.3-0.1-2.5-0.3-3.4
		c-0.2-1-0.5-1.7-0.9-2.3c-0.4-0.6-1-1-1.7-1.3c-0.7-0.3-1.6-0.4-2.6-0.4c-0.4,0-0.9,0-1.3,0.1s-0.9,0.1-1.3,0.2
		c-0.4,0.1-0.8,0.1-1.1,0.2c-0.3,0.1-0.6,0.2-0.7,0.2v18.1H839z"/>
</g>
<g class="st0">
	<path class="st1" d="M749.1,313.4c-0.3-0.7-0.6-1.5-1.1-2.6c-0.5-1-1-2.2-1.5-3.4s-1.1-2.4-1.7-3.7c-0.6-1.3-1.2-2.5-1.7-3.6
		c-0.5-1.1-1-2.1-1.5-3c-0.5-0.9-0.8-1.6-1.1-2.1c-0.3,3.3-0.6,6.9-0.8,10.7c-0.2,3.8-0.4,7.7-0.5,11.6h-4c0.1-2.5,0.2-5.1,0.4-7.6
		c0.1-2.6,0.3-5.1,0.5-7.5c0.2-2.5,0.4-4.9,0.6-7.2c0.2-2.3,0.4-4.6,0.7-6.7h3.6c0.8,1.2,1.6,2.7,2.4,4.4c0.9,1.7,1.7,3.4,2.6,5.3
		c0.9,1.8,1.7,3.7,2.5,5.5s1.6,3.5,2.2,5c0.7-1.5,1.4-3.2,2.2-5s1.6-3.7,2.5-5.5c0.9-1.8,1.7-3.6,2.6-5.3c0.9-1.7,1.7-3.1,2.4-4.4
		h3.6c0.9,9.4,1.7,19,2.1,29.1h-4c-0.1-3.9-0.3-7.8-0.5-11.6c-0.2-3.8-0.4-7.4-0.8-10.7c-0.3,0.5-0.6,1.2-1.1,2.1
		c-0.5,0.9-1,1.9-1.5,3c-0.5,1.1-1.1,2.3-1.7,3.6c-0.6,1.3-1.2,2.5-1.7,3.7c-0.5,1.2-1,2.3-1.5,3.4c-0.5,1-0.8,1.9-1.1,2.6H749.1z"
		/>
	<path class="st1" d="M779.4,295.1c1.6,0,2.9,0.2,4,0.6c1.1,0.4,1.9,1,2.6,1.7c0.7,0.7,1.1,1.6,1.4,2.6c0.3,1,0.4,2.1,0.4,3.4v13.6
		c-0.3,0.1-0.8,0.1-1.4,0.2c-0.6,0.1-1.3,0.2-2,0.3s-1.6,0.2-2.5,0.2c-0.9,0.1-1.8,0.1-2.6,0.1c-1.2,0-2.4-0.1-3.4-0.4
		c-1-0.3-1.9-0.7-2.7-1.2c-0.8-0.5-1.3-1.3-1.8-2.2c-0.4-0.9-0.6-2-0.6-3.2c0-1.2,0.2-2.2,0.7-3.1c0.5-0.9,1.2-1.6,2-2.1
		s1.8-0.9,2.9-1.2c1.1-0.3,2.3-0.4,3.5-0.4c0.4,0,0.8,0,1.2,0.1s0.8,0.1,1.2,0.2c0.4,0.1,0.7,0.1,1,0.2c0.3,0.1,0.5,0.1,0.6,0.1
		v-1.1c0-0.6-0.1-1.3-0.2-1.9c-0.1-0.6-0.4-1.2-0.8-1.7c-0.4-0.5-0.9-0.9-1.5-1.2c-0.6-0.3-1.4-0.4-2.5-0.4c-1.3,0-2.4,0.1-3.4,0.3
		c-1,0.2-1.7,0.4-2.2,0.6l-0.5-3.2c0.5-0.2,1.3-0.4,2.5-0.7C776.8,295.2,778,295.1,779.4,295.1z M779.7,314.6c0.9,0,1.7,0,2.5-0.1
		s1.3-0.1,1.8-0.2v-6.5c-0.3-0.1-0.7-0.3-1.4-0.4c-0.6-0.1-1.4-0.1-2.3-0.1c-0.6,0-1.2,0-1.9,0.1c-0.7,0.1-1.3,0.3-1.8,0.5
		c-0.5,0.3-1,0.6-1.4,1.1s-0.5,1.1-0.5,1.8c0,1.4,0.4,2.4,1.3,2.9S778.2,314.6,779.7,314.6z"/>
	<path class="st1" d="M794.2,296.3c0.9-0.2,2.1-0.5,3.6-0.7c1.5-0.3,3.2-0.4,5.1-0.4c1.7,0,3.2,0.2,4.3,0.7c1.1,0.5,2.1,1.2,2.7,2.1
		c0.7,0.9,1.2,1.9,1.4,3.2c0.3,1.2,0.4,2.6,0.4,4.1v12.2h-3.9V306c0-1.3-0.1-2.5-0.3-3.4c-0.2-1-0.5-1.7-0.9-2.3
		c-0.4-0.6-1-1-1.7-1.3c-0.7-0.3-1.6-0.4-2.6-0.4c-0.4,0-0.9,0-1.3,0c-0.4,0-0.9,0.1-1.3,0.1c-0.4,0-0.8,0.1-1.1,0.1
		c-0.3,0.1-0.6,0.1-0.7,0.1v18.4h-3.9V296.3z"/>
	<path class="st1" d="M825.3,295.1c1.6,0,2.9,0.2,4,0.6c1.1,0.4,1.9,1,2.6,1.7c0.7,0.7,1.1,1.6,1.4,2.6c0.3,1,0.4,2.1,0.4,3.4v13.6
		c-0.3,0.1-0.8,0.1-1.4,0.2c-0.6,0.1-1.3,0.2-2,0.3s-1.6,0.2-2.5,0.2c-0.9,0.1-1.8,0.1-2.6,0.1c-1.2,0-2.4-0.1-3.4-0.4
		c-1-0.3-1.9-0.7-2.7-1.2c-0.8-0.5-1.3-1.3-1.8-2.2c-0.4-0.9-0.6-2-0.6-3.2c0-1.2,0.2-2.2,0.7-3.1c0.5-0.9,1.2-1.6,2-2.1
		s1.8-0.9,2.9-1.2c1.1-0.3,2.3-0.4,3.5-0.4c0.4,0,0.8,0,1.2,0.1s0.8,0.1,1.2,0.2c0.4,0.1,0.7,0.1,1,0.2c0.3,0.1,0.5,0.1,0.6,0.1
		v-1.1c0-0.6-0.1-1.3-0.2-1.9c-0.1-0.6-0.4-1.2-0.8-1.7c-0.4-0.5-0.9-0.9-1.5-1.2c-0.6-0.3-1.4-0.4-2.5-0.4c-1.3,0-2.4,0.1-3.4,0.3
		c-1,0.2-1.7,0.4-2.2,0.6l-0.5-3.2c0.5-0.2,1.3-0.4,2.5-0.7C822.7,295.2,824,295.1,825.3,295.1z M825.7,314.6c0.9,0,1.7,0,2.5-0.1
		s1.3-0.1,1.8-0.2v-6.5c-0.3-0.1-0.7-0.3-1.4-0.4c-0.6-0.1-1.4-0.1-2.3-0.1c-0.6,0-1.2,0-1.9,0.1c-0.7,0.1-1.3,0.3-1.8,0.5
		c-0.5,0.3-1,0.6-1.4,1.1s-0.5,1.1-0.5,1.8c0,1.4,0.4,2.4,1.3,2.9S824.1,314.6,825.7,314.6z"/>
	<path class="st1" d="M853.9,315.3c-0.3,0.2-1,0.5-1.9,0.9c-1,0.3-2.1,0.5-3.4,0.5c-1.3,0-2.6-0.2-3.7-0.6c-1.2-0.4-2.2-1.1-3-1.9
		c-0.9-0.9-1.6-2-2.1-3.3c-0.5-1.3-0.8-2.9-0.8-4.7c0-1.6,0.2-3.1,0.7-4.4c0.5-1.3,1.2-2.5,2.1-3.4c0.9-1,2-1.7,3.3-2.3
		c1.3-0.5,2.8-0.8,4.4-0.8c1.8,0,3.4,0.1,4.8,0.4c1.4,0.3,2.5,0.5,3.4,0.7v19.5c0,3.4-0.9,5.8-2.6,7.3s-4.4,2.3-7.9,2.3
		c-1.4,0-2.7-0.1-3.9-0.3s-2.3-0.5-3.2-0.8l0.7-3.4c0.8,0.3,1.7,0.6,2.9,0.8c1.1,0.2,2.3,0.4,3.5,0.4c2.3,0,4-0.5,5-1.4
		s1.5-2.4,1.5-4.4V315.3z M853.8,299.1c-0.4-0.1-0.9-0.2-1.6-0.3c-0.7-0.1-1.5-0.1-2.7-0.1c-2.1,0-3.7,0.7-4.8,2.1s-1.7,3.2-1.7,5.5
		c0,1.3,0.2,2.3,0.5,3.2s0.8,1.6,1.3,2.2s1.2,1,1.9,1.3c0.7,0.3,1.4,0.4,2.2,0.4c1,0,2-0.1,2.9-0.4c0.9-0.3,1.6-0.6,2.1-1V299.1z"/>
	<path class="st1" d="M863.2,306.6c0-1.9,0.3-3.6,0.8-5.1c0.6-1.4,1.3-2.6,2.2-3.6s2-1.7,3.2-2.1c1.2-0.5,2.4-0.7,3.7-0.7
		c2.9,0,5.2,0.9,6.8,2.7s2.3,4.6,2.3,8.4c0,0.2,0,0.4,0,0.6c0,0.3,0,0.5,0,0.7h-14.9c0.2,2.3,0.8,4,2,5.2c1.1,1.2,2.9,1.8,5.4,1.8
		c1.4,0,2.5-0.1,3.5-0.4c0.9-0.2,1.6-0.5,2.1-0.7l0.5,3.3c-0.5,0.3-1.3,0.5-2.5,0.8c-1.2,0.3-2.5,0.4-4,0.4c-1.9,0-3.5-0.3-4.9-0.9
		s-2.5-1.4-3.4-2.4c-0.9-1-1.6-2.2-2-3.6C863.4,309.8,863.2,308.2,863.2,306.6z M878.2,304.5c0-1.8-0.4-3.2-1.3-4.3
		c-0.9-1.1-2.2-1.7-3.8-1.7c-0.9,0-1.7,0.2-2.4,0.5s-1.3,0.8-1.7,1.4c-0.5,0.6-0.8,1.2-1.1,1.9c-0.3,0.7-0.4,1.5-0.5,2.2H878.2z"/>
	<path class="st1" d="M887.9,296.3c0.9-0.2,2.1-0.5,3.5-0.7c1.5-0.3,3.2-0.4,5.1-0.4c1.4,0,2.6,0.2,3.5,0.6c0.9,0.4,1.7,0.9,2.4,1.7
		c0.2-0.1,0.5-0.3,0.9-0.6c0.4-0.3,0.9-0.5,1.6-0.7c0.6-0.2,1.3-0.4,2.1-0.6c0.8-0.2,1.6-0.3,2.4-0.3c1.7,0,3,0.2,4.1,0.7
		s1.9,1.2,2.5,2.1c0.6,0.9,1,2,1.2,3.2c0.2,1.2,0.3,2.6,0.3,4v12.2h-3.9V306c0-1.3-0.1-2.4-0.2-3.3c-0.1-0.9-0.4-1.7-0.7-2.3
		c-0.3-0.6-0.8-1.1-1.4-1.4c-0.6-0.3-1.4-0.4-2.3-0.4c-1.3,0-2.4,0.2-3.2,0.5s-1.4,0.7-1.7,0.9c0.2,0.7,0.4,1.5,0.5,2.4
		c0.1,0.9,0.2,1.8,0.2,2.7v12.2h-3.9V306c0-1.3-0.1-2.4-0.2-3.3c-0.1-0.9-0.4-1.7-0.7-2.3c-0.3-0.6-0.8-1.1-1.4-1.4
		c-0.6-0.3-1.4-0.4-2.3-0.4c-0.4,0-0.8,0-1.3,0c-0.4,0-0.9,0.1-1.3,0.1s-0.8,0.1-1.1,0.1c-0.3,0.1-0.6,0.1-0.7,0.1v18.4h-3.9V296.3z
		"/>
	<path class="st1" d="M922.7,306.6c0-1.9,0.3-3.6,0.8-5.1c0.6-1.4,1.3-2.6,2.2-3.6c0.9-1,2-1.7,3.2-2.1c1.2-0.5,2.4-0.7,3.7-0.7
		c2.9,0,5.2,0.9,6.8,2.7c1.6,1.8,2.3,4.6,2.3,8.4c0,0.2,0,0.4,0,0.6c0,0.3,0,0.5,0,0.7h-14.9c0.2,2.3,0.8,4,2,5.2
		c1.1,1.2,2.9,1.8,5.4,1.8c1.4,0,2.5-0.1,3.5-0.4s1.6-0.5,2.1-0.7l0.5,3.3c-0.5,0.3-1.3,0.5-2.5,0.8c-1.2,0.3-2.5,0.4-4,0.4
		c-1.9,0-3.5-0.3-4.9-0.9s-2.5-1.4-3.4-2.4c-0.9-1-1.6-2.2-2-3.6C923,309.8,922.7,308.2,922.7,306.6z M937.7,304.5
		c0-1.8-0.4-3.2-1.3-4.3s-2.2-1.7-3.8-1.7c-0.9,0-1.7,0.2-2.4,0.5c-0.7,0.3-1.3,0.8-1.7,1.4c-0.5,0.6-0.8,1.2-1.1,1.9
		c-0.3,0.7-0.4,1.5-0.5,2.2H937.7z"/>
	<path class="st1" d="M947.4,296.3c0.9-0.2,2.1-0.5,3.6-0.7c1.5-0.3,3.2-0.4,5.1-0.4c1.7,0,3.2,0.2,4.3,0.7s2.1,1.2,2.7,2.1
		c0.7,0.9,1.2,1.9,1.4,3.2c0.3,1.2,0.4,2.6,0.4,4.1v12.2h-3.9V306c0-1.3-0.1-2.5-0.3-3.4s-0.5-1.7-0.9-2.3s-1-1-1.7-1.3
		c-0.7-0.3-1.6-0.4-2.6-0.4c-0.4,0-0.9,0-1.3,0c-0.4,0-0.9,0.1-1.3,0.1s-0.8,0.1-1.1,0.1c-0.3,0.1-0.6,0.1-0.7,0.1v18.4h-3.9V296.3z
		"/>
	<path class="st1" d="M975.1,295.6h8.3v3.3h-8.3V309c0,1.1,0.1,2,0.3,2.7c0.2,0.7,0.4,1.3,0.8,1.7c0.3,0.4,0.8,0.7,1.3,0.9
		s1.1,0.3,1.8,0.3c1.2,0,2.1-0.1,2.8-0.4s1.2-0.5,1.5-0.6l0.8,3.2c-0.4,0.2-1.1,0.4-2.1,0.7c-1,0.3-2.1,0.4-3.4,0.4
		c-1.5,0-2.7-0.2-3.7-0.6c-1-0.4-1.7-0.9-2.3-1.7s-1-1.7-1.2-2.8c-0.2-1.1-0.4-2.4-0.4-3.8v-19.5l3.9-0.7V295.6z"/>
</g>
<g class="st0">
	<path class="st1" d="M742.8,364.9c4.2,0,6.4-1.5,6.4-4.4c0-0.9-0.2-1.7-0.6-2.3c-0.4-0.6-0.9-1.2-1.5-1.6c-0.6-0.5-1.4-0.9-2.2-1.2
		c-0.8-0.3-1.7-0.7-2.6-1c-1.1-0.4-2.1-0.8-3-1.2c-1-0.5-1.8-1-2.5-1.6c-0.7-0.6-1.3-1.4-1.7-2.2c-0.4-0.9-0.6-1.9-0.6-3.1
		c0-2.5,0.9-4.5,2.6-6s4.1-2.1,7.2-2.1c1.8,0,3.4,0.2,4.8,0.6c1.4,0.4,2.5,0.8,3.2,1.2l-1.3,3.3c-0.6-0.4-1.5-0.7-2.6-1.1
		c-1.2-0.3-2.5-0.5-4-0.5c-0.8,0-1.5,0.1-2.2,0.3c-0.7,0.2-1.3,0.4-1.8,0.8s-0.9,0.8-1.2,1.3c-0.3,0.5-0.4,1.1-0.4,1.8
		c0,0.8,0.2,1.4,0.5,2c0.3,0.5,0.7,1,1.3,1.4c0.6,0.4,1.2,0.8,1.9,1.1c0.7,0.3,1.6,0.7,2.5,1c1.3,0.5,2.4,1,3.5,1.5s2,1.1,2.7,1.8
		c0.8,0.7,1.4,1.5,1.8,2.5c0.4,1,0.6,2.1,0.6,3.5c0,2.5-0.9,4.5-2.8,5.9c-1.9,1.4-4.5,2.1-7.9,2.1c-1.1,0-2.2-0.1-3.2-0.2
		c-1-0.2-1.8-0.3-2.6-0.5c-0.8-0.2-1.4-0.4-1.9-0.7s-1-0.4-1.3-0.6l1.2-3.4c0.6,0.4,1.6,0.8,2.9,1.2
		C739.3,364.6,740.9,364.9,742.8,364.9z"/>
	<path class="st1" d="M755.6,371.8c0.3,0.1,0.7,0.3,1.2,0.4c0.5,0.1,1,0.2,1.4,0.2c1.5,0,2.7-0.3,3.6-1c0.9-0.7,1.6-1.8,2.3-3.3
		c-1.8-3.4-3.4-6.9-4.9-10.7c-1.5-3.8-2.8-7.6-3.8-11.4h4.2c0.3,1.3,0.7,2.6,1.1,4.1c0.4,1.5,0.9,2.9,1.4,4.5s1.1,3.1,1.7,4.6
		c0.6,1.5,1.3,3,1.9,4.4c1.1-2.9,2-5.8,2.8-8.7c0.8-2.9,1.5-5.8,2.2-8.9h4c-1,4.1-2.1,8.1-3.4,11.8c-1.2,3.8-2.6,7.3-4,10.6
		c-0.6,1.3-1.1,2.3-1.7,3.2c-0.6,0.9-1.3,1.7-2,2.2c-0.7,0.6-1.5,1-2.5,1.3s-1.9,0.4-3.1,0.4c-0.3,0-0.6,0-1-0.1
		c-0.3,0-0.7-0.1-1-0.2s-0.6-0.1-0.9-0.2c-0.3-0.1-0.5-0.2-0.6-0.2L755.6,371.8z"/>
	<path class="st1" d="M784.1,364.9c1.6,0,2.8-0.2,3.5-0.6c0.8-0.4,1.2-1.1,1.2-2c0-1-0.4-1.7-1.1-2.3c-0.8-0.6-2-1.2-3.7-1.9
		c-0.8-0.3-1.6-0.7-2.4-1c-0.8-0.3-1.4-0.8-2-1.2c-0.6-0.5-1-1-1.3-1.7c-0.3-0.7-0.5-1.5-0.5-2.5c0-1.9,0.7-3.5,2.1-4.6
		s3.4-1.7,5.8-1.7c0.6,0,1.2,0,1.8,0.1c0.6,0.1,1.2,0.2,1.7,0.3c0.5,0.1,1,0.2,1.4,0.3c0.4,0.1,0.7,0.2,0.9,0.3l-0.7,3.4
		c-0.4-0.2-1.1-0.5-2-0.7c-0.9-0.2-2-0.4-3.2-0.4c-1.1,0-2,0.2-2.9,0.7s-1.2,1.1-1.2,2c0,0.5,0.1,0.9,0.3,1.3s0.5,0.7,0.8,1
		c0.4,0.3,0.8,0.6,1.4,0.8c0.6,0.3,1.2,0.5,2,0.8c1,0.4,2,0.8,2.8,1.2c0.8,0.4,1.5,0.8,2.1,1.3c0.6,0.5,1,1.1,1.3,1.8
		c0.3,0.7,0.5,1.6,0.5,2.6c0,2-0.7,3.5-2.2,4.6c-1.5,1-3.6,1.6-6.4,1.6c-1.9,0-3.4-0.2-4.5-0.5c-1.1-0.3-1.8-0.6-2.2-0.7l0.7-3.4
		c0.4,0.2,1.2,0.4,2.1,0.8C781.1,364.8,782.4,364.9,784.1,364.9z"/>
	<path class="st1" d="M801.3,345.9h8.3v3.3h-8.3v10.1c0,1.1,0.1,2,0.3,2.7c0.2,0.7,0.4,1.3,0.8,1.7c0.3,0.4,0.8,0.7,1.3,0.9
		c0.5,0.2,1.1,0.3,1.8,0.3c1.2,0,2.1-0.1,2.8-0.4s1.2-0.5,1.5-0.6l0.8,3.2c-0.4,0.2-1.1,0.4-2.1,0.7c-1,0.3-2.1,0.4-3.4,0.4
		c-1.5,0-2.7-0.2-3.7-0.6c-1-0.4-1.7-0.9-2.3-1.7s-1-1.7-1.2-2.8s-0.4-2.4-0.4-3.8v-19.5l3.9-0.7V345.9z"/>
	<path class="st1" d="M812.9,356.9c0-1.9,0.3-3.6,0.8-5.1c0.6-1.4,1.3-2.6,2.2-3.6s2-1.7,3.2-2.1c1.2-0.5,2.4-0.7,3.7-0.7
		c2.9,0,5.2,0.9,6.8,2.7s2.3,4.6,2.3,8.4c0,0.2,0,0.4,0,0.6c0,0.3,0,0.5,0,0.7H817c0.2,2.3,0.8,4,2,5.2c1.1,1.2,2.9,1.8,5.4,1.8
		c1.4,0,2.5-0.1,3.5-0.4c0.9-0.2,1.6-0.5,2.1-0.7l0.5,3.3c-0.5,0.3-1.3,0.5-2.5,0.8c-1.2,0.3-2.5,0.4-4,0.4c-1.9,0-3.5-0.3-4.9-0.9
		s-2.5-1.4-3.4-2.4c-0.9-1-1.6-2.2-2-3.6C813.1,360.1,812.9,358.5,812.9,356.9z M827.9,354.8c0-1.8-0.4-3.2-1.3-4.3
		c-0.9-1.1-2.2-1.7-3.8-1.7c-0.9,0-1.7,0.2-2.4,0.5s-1.3,0.8-1.7,1.4c-0.5,0.6-0.8,1.2-1.1,1.9c-0.3,0.7-0.4,1.5-0.5,2.2H827.9z"/>
	<path class="st1" d="M837.5,346.6c0.9-0.2,2.1-0.5,3.5-0.7c1.5-0.3,3.2-0.4,5.1-0.4c1.4,0,2.6,0.2,3.5,0.6c0.9,0.4,1.7,0.9,2.4,1.7
		c0.2-0.1,0.5-0.3,0.9-0.6c0.4-0.3,0.9-0.5,1.6-0.7c0.6-0.2,1.3-0.4,2.1-0.6c0.8-0.2,1.6-0.3,2.4-0.3c1.7,0,3,0.2,4.1,0.7
		s1.9,1.2,2.5,2.1c0.6,0.9,1,2,1.2,3.2c0.2,1.2,0.3,2.6,0.3,4v12.2h-3.9v-11.4c0-1.3-0.1-2.4-0.2-3.3c-0.1-0.9-0.4-1.7-0.7-2.3
		c-0.3-0.6-0.8-1.1-1.4-1.4c-0.6-0.3-1.4-0.4-2.3-0.4c-1.3,0-2.4,0.2-3.2,0.5s-1.4,0.7-1.7,0.9c0.2,0.7,0.4,1.5,0.5,2.4
		c0.1,0.9,0.2,1.8,0.2,2.7v12.2h-3.9v-11.4c0-1.3-0.1-2.4-0.2-3.3c-0.1-0.9-0.4-1.7-0.7-2.3c-0.3-0.6-0.8-1.1-1.4-1.4
		c-0.6-0.3-1.4-0.4-2.3-0.4c-0.4,0-0.8,0-1.3,0c-0.4,0-0.9,0.1-1.3,0.1s-0.8,0.1-1.1,0.1c-0.3,0.1-0.6,0.1-0.7,0.1v18.4h-3.9V346.6z
		"/>
</g>
<g class="st0">
	<path class="st1" d="M337.3,359.1h3.1v10.3c-0.3,0.1-0.6,0.2-1.1,0.3c-0.5,0.1-1,0.2-1.7,0.3c-0.6,0.1-1.3,0.2-2.1,0.3
		s-1.5,0.1-2.3,0.1c-1.6,0-3-0.3-4.2-0.8s-2.4-1.3-3.3-2.2c-0.9-1-1.6-2.2-2.1-3.6c-0.5-1.4-0.8-3.1-0.8-4.9c0-1.9,0.3-3.5,0.8-4.9
		c0.6-1.4,1.3-2.6,2.3-3.6c1-1,2.1-1.7,3.4-2.2c1.3-0.5,2.7-0.8,4.1-0.8c1,0,1.9,0.1,2.7,0.2c0.8,0.1,1.4,0.3,2,0.4
		c0.6,0.2,1,0.3,1.4,0.5c0.4,0.2,0.6,0.3,0.7,0.4l-1,2.6c-0.6-0.4-1.4-0.7-2.5-1c-1-0.3-2.1-0.4-3.1-0.4c-1.1,0-2.2,0.2-3.1,0.6
		s-1.7,1-2.4,1.8c-0.6,0.8-1.2,1.7-1.5,2.8c-0.4,1.1-0.5,2.3-0.5,3.7c0,1.3,0.2,2.5,0.5,3.6c0.3,1.1,0.8,2,1.4,2.8
		c0.6,0.8,1.4,1.4,2.3,1.8c0.9,0.4,2,0.6,3.3,0.6c0.9,0,1.7,0,2.3-0.1c0.6-0.1,1.1-0.2,1.4-0.3V359.1z"/>
	<path class="st1" d="M359.7,361.7c0,1.3-0.2,2.5-0.6,3.6c-0.4,1.1-0.9,2-1.6,2.7c-0.7,0.8-1.5,1.4-2.5,1.8c-1,0.4-2,0.6-3.1,0.6
		c-1.1,0-2.2-0.2-3.1-0.6c-1-0.4-1.8-1-2.5-1.8c-0.7-0.8-1.2-1.7-1.6-2.7c-0.4-1.1-0.6-2.3-0.6-3.6c0-1.3,0.2-2.5,0.6-3.6
		c0.4-1.1,0.9-2,1.6-2.8c0.7-0.8,1.5-1.4,2.5-1.8c1-0.4,2-0.6,3.1-0.6c1.1,0,2.2,0.2,3.1,0.6c1,0.4,1.8,1,2.5,1.8
		c0.7,0.8,1.2,1.7,1.6,2.8C359.5,359.2,359.7,360.4,359.7,361.7z M356.6,361.7c0-1.9-0.4-3.4-1.3-4.5s-2-1.6-3.4-1.6
		c-1.4,0-2.6,0.5-3.4,1.6c-0.8,1.1-1.3,2.6-1.3,4.5c0,1.9,0.4,3.4,1.3,4.5c0.8,1.1,2,1.6,3.4,1.6c1.4,0,2.6-0.5,3.4-1.6
		S356.6,363.5,356.6,361.7z"/>
	<path class="st1" d="M376.4,353.4c-0.8,3.1-1.8,6.1-2.9,8.9c-1.1,2.9-2.2,5.4-3.2,7.7h-2.7c-1-2.3-2.1-4.8-3.2-7.7
		c-1.1-2.9-2.1-5.8-2.9-8.9h3.2c0.3,1,0.6,2.2,0.9,3.3c0.4,1.2,0.7,2.4,1.1,3.5c0.4,1.2,0.8,2.3,1.2,3.4s0.8,2.1,1.1,2.9
		c0.4-0.9,0.7-1.8,1.1-2.9c0.4-1.1,0.8-2.2,1.2-3.4c0.4-1.2,0.8-2.3,1.1-3.5s0.7-2.3,0.9-3.3H376.4z"/>
	<path class="st1" d="M378.1,361.7c0-1.5,0.2-2.7,0.6-3.8c0.4-1.1,1-2,1.7-2.7c0.7-0.7,1.5-1.3,2.4-1.6c0.9-0.4,1.9-0.5,2.8-0.5
		c2.2,0,3.9,0.7,5.1,2.1s1.8,3.5,1.8,6.4c0,0.1,0,0.3,0,0.5c0,0.2,0,0.4,0,0.6h-11.4c0.1,1.7,0.6,3,1.5,3.9c0.9,0.9,2.2,1.3,4.1,1.3
		c1,0,1.9-0.1,2.6-0.3c0.7-0.2,1.2-0.4,1.6-0.5l0.4,2.5c-0.4,0.2-1,0.4-1.9,0.6c-0.9,0.2-1.9,0.3-3.1,0.3c-1.4,0-2.7-0.2-3.7-0.7
		c-1.1-0.4-1.9-1-2.6-1.8c-0.7-0.8-1.2-1.7-1.5-2.7C378.3,364.1,378.1,363,378.1,361.7z M389.5,360.1c0-1.3-0.3-2.4-1-3.3
		c-0.7-0.9-1.6-1.3-2.9-1.3c-0.7,0-1.3,0.1-1.8,0.4c-0.5,0.3-1,0.6-1.3,1c-0.4,0.4-0.6,0.9-0.8,1.5c-0.2,0.6-0.3,1.1-0.4,1.7H389.5z
		"/>
	<path class="st1" d="M403,353c0.3,0,0.5,0,0.9,0c0.3,0,0.7,0.1,1,0.1c0.3,0.1,0.6,0.1,0.9,0.2c0.3,0.1,0.5,0.1,0.6,0.1l-0.5,2.6
		c-0.2-0.1-0.6-0.2-1.2-0.3c-0.5-0.1-1.2-0.2-2.1-0.2c-0.6,0-1.1,0.1-1.6,0.2c-0.5,0.1-0.9,0.2-1.1,0.2V370h-3v-15.9
		c0.7-0.3,1.6-0.5,2.6-0.7C400.5,353.1,401.7,353,403,353z"/>
	<path class="st1" d="M409.2,353.9c0.7-0.2,1.6-0.4,2.7-0.5c1.1-0.2,2.4-0.3,3.9-0.3c1.3,0,2.4,0.2,3.3,0.6c0.9,0.4,1.6,0.9,2.1,1.6
		c0.5,0.7,0.9,1.5,1.1,2.4c0.2,0.9,0.3,2,0.3,3.1v9.3h-3v-8.7c0-1-0.1-1.9-0.2-2.6c-0.1-0.7-0.4-1.3-0.7-1.8c-0.3-0.4-0.7-0.8-1.3-1
		s-1.2-0.3-2-0.3c-0.3,0-0.6,0-1,0c-0.3,0-0.7,0-1,0.1c-0.3,0-0.6,0.1-0.8,0.1c-0.2,0-0.4,0.1-0.5,0.1v14h-3V353.9z"/>
	<path class="st1" d="M427.5,353.9c0.7-0.2,1.6-0.4,2.7-0.5c1.1-0.2,2.4-0.3,3.9-0.3c1.1,0,2,0.1,2.7,0.4s1.3,0.7,1.8,1.3
		c0.1-0.1,0.4-0.3,0.7-0.4c0.3-0.2,0.7-0.4,1.2-0.6c0.5-0.2,1-0.3,1.6-0.5c0.6-0.1,1.2-0.2,1.9-0.2c1.3,0,2.3,0.2,3.1,0.6
		s1.4,0.9,1.9,1.6c0.5,0.7,0.8,1.5,0.9,2.4s0.2,2,0.2,3.1v9.3h-3v-8.7c0-1,0-1.8-0.1-2.5s-0.3-1.3-0.5-1.8s-0.6-0.8-1.1-1
		c-0.5-0.2-1-0.3-1.8-0.3c-1,0-1.8,0.1-2.5,0.4c-0.6,0.3-1.1,0.5-1.3,0.7c0.2,0.6,0.3,1.2,0.4,1.8c0.1,0.7,0.1,1.4,0.1,2.1v9.3h-3
		v-8.7c0-1-0.1-1.8-0.2-2.5s-0.3-1.3-0.6-1.8c-0.3-0.5-0.6-0.8-1.1-1c-0.5-0.2-1-0.3-1.7-0.3c-0.3,0-0.6,0-1,0c-0.3,0-0.7,0-1,0.1
		c-0.3,0-0.6,0.1-0.8,0.1c-0.3,0-0.4,0.1-0.5,0.1v14h-3V353.9z"/>
	<path class="st1" d="M454.1,361.7c0-1.5,0.2-2.7,0.6-3.8c0.4-1.1,1-2,1.7-2.7c0.7-0.7,1.5-1.3,2.4-1.6c0.9-0.4,1.9-0.5,2.8-0.5
		c2.2,0,3.9,0.7,5.1,2.1s1.8,3.5,1.8,6.4c0,0.1,0,0.3,0,0.5c0,0.2,0,0.4,0,0.6h-11.4c0.1,1.7,0.6,3,1.5,3.9c0.9,0.9,2.2,1.3,4.1,1.3
		c1,0,1.9-0.1,2.6-0.3c0.7-0.2,1.2-0.4,1.6-0.5l0.4,2.5c-0.4,0.2-1,0.4-1.9,0.6c-0.9,0.2-1.9,0.3-3.1,0.3c-1.4,0-2.7-0.2-3.7-0.7
		c-1.1-0.4-1.9-1-2.6-1.8c-0.7-0.8-1.2-1.7-1.5-2.7C454.2,364.1,454.1,363,454.1,361.7z M465.5,360.1c0-1.3-0.3-2.4-1-3.3
		c-0.7-0.9-1.6-1.3-2.9-1.3c-0.7,0-1.3,0.1-1.8,0.4c-0.5,0.3-1,0.6-1.3,1c-0.4,0.4-0.6,0.9-0.8,1.5c-0.2,0.6-0.3,1.1-0.4,1.7H465.5z
		"/>
	<path class="st1" d="M472.8,353.9c0.7-0.2,1.6-0.4,2.7-0.5c1.1-0.2,2.4-0.3,3.9-0.3c1.3,0,2.4,0.2,3.3,0.6c0.9,0.4,1.6,0.9,2.1,1.6
		c0.5,0.7,0.9,1.5,1.1,2.4c0.2,0.9,0.3,2,0.3,3.1v9.3h-3v-8.7c0-1-0.1-1.9-0.2-2.6c-0.1-0.7-0.4-1.3-0.7-1.8c-0.3-0.4-0.7-0.8-1.3-1
		s-1.2-0.3-2-0.3c-0.3,0-0.6,0-1,0c-0.3,0-0.7,0-1,0.1c-0.3,0-0.6,0.1-0.8,0.1c-0.2,0-0.4,0.1-0.5,0.1v14h-3V353.9z"/>
	<path class="st1" d="M493.9,353.4h6.3v2.5h-6.3v7.7c0,0.8,0.1,1.5,0.2,2.1c0.1,0.5,0.3,1,0.6,1.3c0.3,0.3,0.6,0.5,1,0.7
		s0.8,0.2,1.3,0.2c0.9,0,1.6-0.1,2.2-0.3s0.9-0.3,1.1-0.4l0.6,2.5c-0.3,0.1-0.8,0.3-1.6,0.6c-0.7,0.2-1.6,0.3-2.6,0.3
		c-1.1,0-2.1-0.1-2.8-0.4c-0.7-0.3-1.3-0.7-1.8-1.3c-0.4-0.6-0.8-1.3-0.9-2.1c-0.2-0.8-0.3-1.8-0.3-2.9v-14.8l3-0.5V353.4z"/>
</g>
<g id="XMLID_7473_">
	<path id="XMLID_36_" class="st1" d="M357.6,294l-14,42.3h-18l45.7-134.6h21l45.9,134.6h-18.6L405.3,294H357.6z M401.8,280.4
		l-13.2-38.8c-3-8.8-5-16.8-7-24.6h-0.4c-2,8-4.2,16.2-6.8,24.4l-13.2,39C361.2,280.4,401.8,280.4,401.8,280.4z"/>
	<path id="XMLID_34_" class="st1" d="M521.6,235.5l21,56.7c2.2,6.3,4.6,13.9,6.1,19.6h0.4c1.8-5.7,3.8-13.1,6.1-20l19-56.3h18.4
		l-26.2,68.4c-12.5,32.9-21,49.7-32.9,60c-8.5,7.5-17,10.5-21.4,11.3l-4.4-14.7c4.4-1.4,10.1-4.2,15.3-8.5
		c4.8-3.8,10.7-10.5,14.7-19.4c0.8-1.8,1.4-3.2,1.4-4.2s-0.4-2.4-1.2-4.6l-35.5-88.4h19.2V235.5z"/>
	<path id="XMLID_32_" class="st1" d="M487.9,186c5.3,0,9.8,0.4,13.7,1.2c3.8,0.8,6.5,1.5,8,2.1l-3.3,15.5c-1.5-0.8-3.7-1.5-6.6-2.2
		c-2.8-0.7-6.3-1.1-10.5-1.1c-8.4,0-14.3,2.3-17.6,6.9c-3.4,4.6-5,10.7-5,18.5v8.7H495v15.1h-28.4v85.6h-18v-85.6h-9.4v-15.1h9.4
		v-9.1c0-12.9,3.2-22.9,9.5-29.9S474.4,186,487.9,186z"/>
	<path id="XMLID_29_" class="st1" d="M630.5,233c7.2,0,13.3,0.9,18.3,2.8s9,4.5,12,7.9c3,3.4,5.2,7.5,6.5,12.2
		c1.3,4.7,1.9,9.9,1.9,15.6v62.9c-1.5,0.3-3.7,0.6-6.5,1.1s-5.9,0.9-9.4,1.3c-3.5,0.4-7.3,0.7-11.3,1.1c-4.1,0.3-8.1,0.5-12.1,0.5
		c-5.7,0-10.9-0.6-15.7-1.7c-4.8-1.2-8.9-3-12.4-5.5s-6.2-5.8-8.1-10c-1.9-4.1-2.9-9.1-2.9-14.9c0-5.5,1.1-10.3,3.4-14.3
		c2.3-4,5.3-7.2,9.2-9.7s8.4-4.3,13.6-5.4c5.2-1.2,10.6-1.7,16.3-1.7c1.8,0,3.7,0.1,5.6,0.3c1.9,0.2,3.8,0.5,5.5,0.8
		c1.7,0.3,3.3,0.6,4.6,0.9c1.3,0.3,2.2,0.5,2.7,0.6v-5c0-3-0.3-5.9-1-8.8c-0.6-2.9-1.8-5.5-3.5-7.7c-1.7-2.3-4-4.1-6.9-5.4
		c-2.9-1.4-6.7-2-11.3-2c-5.9,0-11.1,0.4-15.6,1.3c-4.5,0.8-7.8,1.7-10,2.6l-2.1-14.9c2.3-1,6.2-2,11.6-3
		C618.3,233.5,624.2,233,630.5,233z M632.1,323.3c4.3,0,8-0.1,11.3-0.3s6-0.5,8.2-1.1v-30c-1.3-0.6-3.4-1.2-6.3-1.6
		c-2.9-0.5-6.4-0.7-10.6-0.7c-2.7,0-5.6,0.2-8.6,0.6c-3,0.4-5.8,1.2-8.3,2.4c-2.5,1.2-4.6,2.9-6.3,5c-1.7,2.1-2.5,4.9-2.5,8.4
		c0,6.5,2.1,10.9,6.2,13.5C619.4,322,625,323.3,632.1,323.3z"/>
</g>
<g class="st0">
	<path class="st1" d="M565.4,361.7c0,1.3-0.2,2.5-0.6,3.6s-0.9,2-1.6,2.7c-0.7,0.8-1.5,1.4-2.5,1.8c-1,0.4-2,0.6-3.1,0.6
		s-2.2-0.2-3.1-0.6c-1-0.4-1.8-1-2.5-1.8c-0.7-0.8-1.2-1.7-1.6-2.7c-0.4-1.1-0.6-2.3-0.6-3.6c0-1.3,0.2-2.5,0.6-3.6
		c0.4-1.1,0.9-2,1.6-2.8c0.7-0.8,1.5-1.4,2.5-1.8s2-0.6,3.1-0.6s2.2,0.2,3.1,0.6c1,0.4,1.8,1,2.5,1.8c0.7,0.8,1.2,1.7,1.6,2.8
		S565.4,360.4,565.4,361.7z M562.3,361.7c0-1.9-0.4-3.4-1.3-4.5c-0.8-1.1-2-1.6-3.4-1.6s-2.6,0.5-3.4,1.6c-0.8,1.1-1.3,2.6-1.3,4.5
		c0,1.9,0.4,3.4,1.3,4.5c0.8,1.1,2,1.6,3.4,1.6s2.6-0.5,3.4-1.6C561.9,365,562.3,363.5,562.3,361.7z"/>
	<path class="st1" d="M576,345.2c0.9,0,1.6,0.1,2.2,0.2c0.6,0.1,1.1,0.2,1.3,0.4l-0.5,2.6c-0.3-0.1-0.6-0.3-1.1-0.4
		c-0.5-0.1-1-0.2-1.7-0.2c-1.4,0-2.4,0.4-2.9,1.1c-0.6,0.8-0.8,1.8-0.8,3v1.4h6.4v2.5h-6.4V370h-3v-18.1c0-2.1,0.5-3.8,1.6-4.9
		C572.2,345.8,573.8,345.2,576,345.2z"/>
	<path class="st1" d="M605.8,347.9c-0.7,0.7-1.4,1.5-2.2,2.4c-0.8,0.9-1.7,1.8-2.6,2.7s-1.8,1.8-2.7,2.7s-1.7,1.7-2.5,2.5
		c0.9,0.6,1.9,1.4,2.9,2.4c1,0.9,2,1.9,3,3c1,1.1,1.9,2.1,2.8,3.3c0.9,1.1,1.6,2.2,2.2,3.2h-3.6c-0.6-1-1.4-2-2.2-3
		c-0.8-1-1.7-2-2.6-2.9c-0.9-0.9-1.9-1.8-2.8-2.6c-0.9-0.8-1.9-1.5-2.8-2V370h-3.1v-22.1h3.1v9.8c0.7-0.7,1.6-1.5,2.5-2.4
		c0.9-0.9,1.8-1.8,2.6-2.7c0.9-0.9,1.7-1.8,2.5-2.6c0.8-0.8,1.4-1.5,2-2.2H605.8z"/>
	<path class="st1" d="M607.7,361.7c0-1.5,0.2-2.7,0.6-3.8c0.4-1.1,1-2,1.7-2.7c0.7-0.7,1.5-1.3,2.4-1.6c0.9-0.4,1.9-0.5,2.8-0.5
		c2.2,0,3.9,0.7,5.1,2.1s1.8,3.5,1.8,6.4c0,0.1,0,0.3,0,0.5c0,0.2,0,0.4,0,0.6h-11.4c0.1,1.7,0.6,3,1.5,3.9c0.9,0.9,2.2,1.3,4.1,1.3
		c1,0,1.9-0.1,2.6-0.3c0.7-0.2,1.2-0.4,1.6-0.5l0.4,2.5c-0.4,0.2-1,0.4-1.9,0.6c-0.9,0.2-1.9,0.3-3.1,0.3c-1.4,0-2.7-0.2-3.7-0.7
		s-1.9-1-2.6-1.8c-0.7-0.8-1.2-1.7-1.5-2.7C607.9,364.1,607.7,363,607.7,361.7z M619.1,360.1c0-1.3-0.3-2.4-1-3.3
		c-0.7-0.9-1.6-1.3-2.9-1.3c-0.7,0-1.3,0.1-1.8,0.4c-0.5,0.3-1,0.6-1.3,1c-0.4,0.4-0.6,0.9-0.8,1.5c-0.2,0.6-0.3,1.1-0.4,1.7H619.1z
		"/>
	<path class="st1" d="M626.5,353.9c0.7-0.2,1.6-0.4,2.7-0.5c1.1-0.2,2.4-0.3,3.9-0.3c1.3,0,2.4,0.2,3.3,0.6c0.9,0.4,1.6,0.9,2.1,1.6
		s0.9,1.5,1.1,2.4c0.2,0.9,0.3,2,0.3,3.1v9.3h-3v-8.7c0-1-0.1-1.9-0.2-2.6c-0.1-0.7-0.4-1.3-0.7-1.8c-0.3-0.4-0.7-0.8-1.3-1
		c-0.5-0.2-1.2-0.3-2-0.3c-0.3,0-0.6,0-1,0c-0.3,0-0.7,0-1,0.1c-0.3,0-0.6,0.1-0.8,0.1c-0.2,0-0.4,0.1-0.5,0.1v14h-3V353.9z"/>
	<path class="st1" d="M642.3,373.1c0.2,0.1,0.5,0.2,0.9,0.3s0.7,0.1,1.1,0.1c1.2,0,2.1-0.3,2.7-0.8c0.7-0.5,1.3-1.4,1.8-2.5
		c-1.3-2.6-2.6-5.3-3.8-8.1s-2.1-5.8-2.9-8.7h3.2c0.2,1,0.5,2,0.8,3.1c0.3,1.1,0.7,2.2,1.1,3.4c0.4,1.2,0.8,2.3,1.3,3.5
		c0.5,1.2,1,2.3,1.5,3.4c0.8-2.2,1.5-4.4,2.1-6.6s1.2-4.4,1.7-6.8h3.1c-0.8,3.1-1.6,6.1-2.6,9c-0.9,2.9-1.9,5.6-3,8.1
		c-0.4,1-0.9,1.8-1.3,2.5c-0.5,0.7-1,1.3-1.5,1.7c-0.6,0.4-1.2,0.8-1.9,1s-1.5,0.3-2.3,0.3c-0.2,0-0.5,0-0.7,0
		c-0.3,0-0.5-0.1-0.8-0.1c-0.2-0.1-0.5-0.1-0.7-0.2c-0.2-0.1-0.3-0.1-0.4-0.2L642.3,373.1z"/>
	<path class="st1" d="M665.5,353c1.2,0,2.2,0.2,3,0.5c0.8,0.3,1.5,0.7,2,1.3c0.5,0.6,0.9,1.2,1.1,2s0.3,1.6,0.3,2.6v10.4
		c-0.3,0-0.6,0.1-1.1,0.2c-0.5,0.1-1,0.1-1.5,0.2s-1.2,0.1-1.9,0.2c-0.7,0.1-1.3,0.1-2,0.1c-0.9,0-1.8-0.1-2.6-0.3s-1.5-0.5-2-0.9
		s-1-1-1.3-1.6c-0.3-0.7-0.5-1.5-0.5-2.5c0-0.9,0.2-1.7,0.6-2.4c0.4-0.7,0.9-1.2,1.5-1.6c0.6-0.4,1.4-0.7,2.2-0.9
		c0.9-0.2,1.7-0.3,2.7-0.3c0.3,0,0.6,0,0.9,0c0.3,0,0.6,0.1,0.9,0.1c0.3,0.1,0.5,0.1,0.8,0.1c0.2,0,0.4,0.1,0.4,0.1v-0.8
		c0-0.5-0.1-1-0.2-1.5s-0.3-0.9-0.6-1.3s-0.7-0.7-1.1-0.9s-1.1-0.3-1.9-0.3c-1,0-1.8,0.1-2.6,0.2c-0.7,0.1-1.3,0.3-1.6,0.4l-0.4-2.5
		c0.4-0.2,1-0.3,1.9-0.5C663.4,353,664.4,353,665.5,353z M665.7,367.8c0.7,0,1.3,0,1.9,0c0.5,0,1-0.1,1.4-0.2v-4.9
		c-0.2-0.1-0.6-0.2-1-0.3c-0.5-0.1-1.1-0.1-1.7-0.1c-0.4,0-0.9,0-1.4,0.1c-0.5,0.1-1,0.2-1.4,0.4c-0.4,0.2-0.8,0.5-1,0.8
		c-0.3,0.4-0.4,0.8-0.4,1.4c0,1.1,0.3,1.8,1,2.2C663.6,367.6,664.5,367.8,665.7,367.8z"/>
</g>
<linearGradient id="XMLID_3_" gradientUnits="userSpaceOnUse" x1="703.9" y1="378" x2="703.9" y2="188" gradientTransform="matrix(1 0 0 -1 0 564)">
	<stop  offset="0" style="stop-color:#29A9E1"/>
	<stop  offset="1" style="stop-color:#0D72B9"/>
</linearGradient>
<rect id="XMLID_7458_" x="701.4" y="186" class="st2" width="5" height="190"/>
<image style="overflow:visible;enable-background:new    ;" width="846" height="796" id="XMLID_2325_" xlink:href="2C16CE90.png"  transform="matrix(0.2391 0 0 0.2391 94.7996 185.1112)">
</image>
</svg>
